<svg xmlns="http://www.w3.org/2000/svg" width="100" height="66.536" viewBox="0 0 100 66.536"><g transform="translate(-70.256 -2663.181)"><path d="M169.759,2717.243H165.4a2.923,2.923,0,0,0-.633-1.519,3.279,3.279,0,0,0-2.362-.708,3.525,3.525,0,0,0-2.256.542,1.4,1.4,0,0,0-.483,1.113c0,.661.92,1.189,2.739,1.6a43.263,43.263,0,0,1,4.484,1.158c.241.091.451.166.6.241a4.216,4.216,0,0,1,2.769,3.973,5.032,5.032,0,0,1-2.693,4.739c-.227.122-.437.227-.678.332a10.184,10.184,0,0,1-4.032.752,11.073,11.073,0,0,1-5.507-1.2,5.2,5.2,0,0,1-1.976-1.93,5.432,5.432,0,0,1-.657-2.719h4.573a2.163,2.163,0,0,0,.843,1.82,4.7,4.7,0,0,0,2.844.664,3.427,3.427,0,0,0,2.257-.633,1.41,1.41,0,0,0,.572-1.114c0-.707-.9-1.263-2.694-1.655a29.306,29.306,0,0,1-5.055-1.37,4.194,4.194,0,0,1-2.738-4.018,5.255,5.255,0,0,1,1.429-3.745,7.08,7.08,0,0,1,5.4-1.912,11.3,11.3,0,0,1,4.74.843,1.7,1.7,0,0,1,.286.152,4.766,4.766,0,0,1,1.937,1.851A5.511,5.511,0,0,1,169.759,2717.243Z"/><path d="M167.427,2706.59a.36.36,0,0,0-.06-.226.325.325,0,0,0-.2-.149,2.047,2.047,0,0,0-.287-.047h-.691v.843h.691a.638.638,0,0,0,.406-.12A.381.381,0,0,0,167.427,2706.59Zm.362-.452a.664.664,0,0,1,.135.406.736.736,0,0,1-.226.542.873.873,0,0,1-.586.256.745.745,0,0,1,.24.15l.421.558.331.555h-.542l-.256-.45a2.582,2.582,0,0,0-.421-.6.194.194,0,0,0-.06-.045l-.36-.1h-.271v1.2h-.453v-2.827h.978c.061,0,.122.014.166.014a1.636,1.636,0,0,1,.542.075A.655.655,0,0,1,167.789,2706.138Z"/><path d="M169.068,2707.162a2.177,2.177,0,0,0-.287-1.1,2.113,2.113,0,0,0-.812-.812,2.33,2.33,0,0,0-1.07-.286h-.014a2.321,2.321,0,0,0-1.067.286,2.111,2.111,0,0,0-.814.812,2.136,2.136,0,0,0,0,2.183,2.037,2.037,0,0,0,.8.8,2.161,2.161,0,0,0,1.083.287h.014a2.17,2.17,0,0,0,1.086-.287,2.026,2.026,0,0,0,.8-.8A2.166,2.166,0,0,0,169.068,2707.162Zm.437,0a2.58,2.58,0,0,1-.348,1.294,2.277,2.277,0,0,1-.962.962,2.517,2.517,0,0,1-1.3.347h-.014a2.509,2.509,0,0,1-1.293-.347,2.276,2.276,0,0,1-.964-.962,2.565,2.565,0,0,1-.345-1.294,2.6,2.6,0,0,1,.345-1.325,2.422,2.422,0,0,1,.978-.962,2.848,2.848,0,0,1,1.279-.346h.014a2.672,2.672,0,0,1,1.28.346,2.322,2.322,0,0,1,.978.962A2.615,2.615,0,0,1,169.505,2707.162Z"/><path d="M143.908,2685.9l12.354,20.584H136.416l-11.8-19.667-8.937-14.881,8.937-5.372,5.627-3.385Z"/><path d="M152.877,2720.778v8.442h-4.108v-.933a8.793,8.793,0,0,1-4.815,1.43h-.046a8.938,8.938,0,0,1,0-17.876h.046a8.806,8.806,0,0,1,4.815,1.429v-.978h4.108Zm-4.108.934v-1.866a4.922,4.922,0,0,0-4.815-3.973h-.046a4.913,4.913,0,0,0,0,9.826h.046A4.935,4.935,0,0,0,148.769,2721.712Z"/><path d="M133.587,2720.778v8.442H129.48v-.933a8.831,8.831,0,0,1-4.816,1.43h-.044a8.938,8.938,0,0,1,0-17.876h.044a8.842,8.842,0,0,1,4.816,1.429v-6.785h4.107Zm-4.107.934v-1.866a4.923,4.923,0,0,0-4.816-3.973h-.044a4.913,4.913,0,0,0,0,9.826h.044A4.936,4.936,0,0,0,129.48,2721.712Z"/><path d="M124.62,2698.389l4.844,8.1H109.632l-11.013-18.327-.481-.8.481-.285,14.1-8.488Z"/><rect width="4.468" height="17.379" transform="translate(109.648 2711.841)"/><rect width="4.468" height="3.927" transform="translate(109.648 2706.574)"/><path d="M107.6,2720.778v8.442h-4.107v-.933a8.875,8.875,0,0,1-4.83,1.43h-.045a8.938,8.938,0,0,1,0-17.876h.045a8.889,8.889,0,0,1,4.83,1.429v-6.785H107.6Zm-4.107.934v-1.866a4.926,4.926,0,0,0-4.83-3.973h-.045a4.913,4.913,0,0,0,0,9.826h.045A4.939,4.939,0,0,0,103.494,2721.712Z"/><path d="M98.619,2699.713l4.062,6.772H82.835l-2.227-3.717,14.58-8.757Z"/><path d="M88.116,2720.778v8.442H84.009v-.933a8.881,8.881,0,0,1-4.83,1.43h-.046a8.938,8.938,0,0,1,0-17.876h.046a8.894,8.894,0,0,1,4.83,1.429v-.978h4.107Zm-4.107.934v-1.866a4.926,4.926,0,0,0-4.83-3.973h-.046a4.913,4.913,0,0,0,0,9.826h.046A4.938,4.938,0,0,0,84.009,2721.712Z"/></g></svg>