<svg xmlns="http://www.w3.org/2000/svg" width="75" height="35.513" viewBox="0 0 75 35.513"><defs><style>.a{fill:#2e2d2c;}.a,.b{fill-rule:evenodd;}.b{fill:#e25b25;}</style></defs><g transform="translate(-731.769 -603.079)"><path class="a" d="M742.522,627.516h-8.17a.976.976,0,0,0-.646.3l-1.639,1.639a1.115,1.115,0,0,0-.3.621v5.96a.972.972,0,0,0,.3.621l1.639,1.639a1.109,1.109,0,0,0,.646.3h8.17a.393.393,0,0,0,.4-.4v-2.061a.393.393,0,0,0-.4-.4h-7.8v-5.314h7.823a.393.393,0,0,0,.4-.4v-2.061a.425.425,0,0,0-.423-.447"/><path class="a" d="M753.946,627.789a1.179,1.179,0,0,0-.7-.3H746.7a1.1,1.1,0,0,0-.7.3l-1.639,1.639a1.179,1.179,0,0,0-.3.7v5.836a1.1,1.1,0,0,0,.3.7L746,638.294a1.153,1.153,0,0,0,.7.273h6.556a1.216,1.216,0,0,0,.7-.273l1.639-1.639a1.179,1.179,0,0,0,.3-.7v-5.836a1.1,1.1,0,0,0-.3-.7Zm-1.018,7.9h-5.911v-5.315H752.9v5.315Z"/><path class="a" d="M768.1,627.516h-2.136a.392.392,0,0,0-.4.4v7.774H760.3v-7.8a.393.393,0,0,0-.4-.4h-2.136a.393.393,0,0,0-.4.4v8.046a1.1,1.1,0,0,0,.3.7l1.639,1.639a1.152,1.152,0,0,0,.7.273h5.91a1.216,1.216,0,0,0,.7-.273l1.639-1.639a1.152,1.152,0,0,0,.273-.7v-8.046a.43.43,0,0,0-.422-.373"/><path class="a" d="M778.383,634.941a.93.93,0,0,0,.373-.223l1.639-1.639a1.179,1.179,0,0,0,.3-.7v-2.26a1.1,1.1,0,0,0-.3-.7l-1.639-1.639a1.179,1.179,0,0,0-.7-.3h-7.723a.392.392,0,0,0-.4.4V638.17a.392.392,0,0,0,.4.4h2.136a.392.392,0,0,0,.4-.4v-3.179h2.161l2.235,3.253a.905.905,0,0,0,.645.323h2.583c.224,0,.3-.149.174-.323ZM772.9,630.4h4.843v1.838H772.9Z"/><path class="a" d="M802.969,638.244l-2.284-3.3a.926.926,0,0,0,.372-.223l1.639-1.639a1.152,1.152,0,0,0,.273-.7v-2.26a1.217,1.217,0,0,0-.273-.7l-1.639-1.639a1.179,1.179,0,0,0-.7-.3h-7.724a.392.392,0,0,0-.4.4V638.17a.392.392,0,0,0,.4.4h2.136a.392.392,0,0,0,.4-.4v-3.179h2.161l2.235,3.253a.905.905,0,0,0,.646.323H802.8c.223,0,.322-.149.173-.323M795.2,630.4h4.843v1.838H795.2Z"/><path class="a" d="M790.527,627.516h-8.269a.393.393,0,0,0-.4.4V630a.393.393,0,0,0,.4.4h2.657v5.29h-2.657a.392.392,0,0,0-.4.4v2.086a.393.393,0,0,0,.4.4h8.269a.393.393,0,0,0,.4-.4v-2.086a.392.392,0,0,0-.4-.4H787.87v-5.315h2.657a.393.393,0,0,0,.4-.4v-2.086a.373.373,0,0,0-.4-.373"/><path class="b" d="M731.769,617.756a1.681,1.681,0,0,0,.5,1.217l4.42,4.222a1.887,1.887,0,0,0,1.292.521h14.056a.862.862,0,0,0,.869-.869v-4.718a.88.88,0,0,0-.869-.87H738.375v-7.748h13.684a.863.863,0,0,0,.869-.869v-4.694a.862.862,0,0,0-.869-.869H738a1.8,1.8,0,0,0-1.292.521l-4.42,4.222a1.728,1.728,0,0,0-.5,1.217v8.717Z"/><path class="a" d="M805.95,623.741l.819.82v2.16l-.819.82h-2.161l-.82-.82v-2.16l.82-.82Zm-.2,3.278.521-.521v-1.739l-.521-.521h-1.739l-.521.521V626.5l.521.521Z"/><path class="a" d="M805.751,626.4l-.348-.5a.087.087,0,0,0,.05-.025l.248-.248a.189.189,0,0,0,.05-.1v-.347a.189.189,0,0,0-.05-.1l-.248-.248a.191.191,0,0,0-.1-.05h-1.168a.053.053,0,0,0-.049.05v1.54a.053.053,0,0,0,.049.049h.323a.054.054,0,0,0,.05-.049V625.9h.323l.347.5a.13.13,0,0,0,.1.05h.4c.025,0,.025-.025.025-.05m-1.192-1.167h.72v.273h-.72Z"/></g></svg>