<svg xmlns="http://www.w3.org/2000/svg" width="75" height="12.121" viewBox="0 0 75 12.121"><defs><style>.a{fill:#211e1f;stroke:#211e1f;stroke-miterlimit:3.864;stroke-width:0;fill-rule:evenodd;}</style></defs><g transform="translate(-1109.071 -730.455)"><path class="a" d="M1163.9,731.1c-.141-.1-.114-.185.06-.185h5.244a.971.971,0,0,1,.553.21l3.984,3.667a.341.341,0,0,0,.436,0l3.978-3.667a.971.971,0,0,1,.553-.21h5.216c.174,0,.2.083.059.184l-7.592,5.287a.193.193,0,0,0,0,.335l7.332,5.116c.142.1.115.184-.059.184h-5.533a.964.964,0,0,1-.552-.21L1174.2,738.6a.342.342,0,0,0-.436,0l-3.46,3.211a.977.977,0,0,1-.555.208h-5.533c-.174,0-.2-.083-.059-.185l7.285-5.114a.193.193,0,0,0,0-.336Zm-18.688,5.385c0-3.329,4.323-6.027,9.655-6.027s9.655,2.7,9.655,6.027-4.323,6.027-9.655,6.027S1145.209,739.811,1145.209,736.482Zm4.3,0c0-2.281,2.4-4.13,5.358-4.13s5.358,1.849,5.358,4.13-2.4,4.13-5.358,4.13S1149.506,738.763,1149.506,736.482Zm-17.941-5.57h13a.318.318,0,0,1,.317.317v1.1a.318.318,0,0,1-.317.316h-9.859a.318.318,0,0,0-.316.317v2.325a.317.317,0,0,0,.316.316h8.129a.318.318,0,0,1,.317.317v1.1a.318.318,0,0,1-.317.316h-8.129a.318.318,0,0,0-.316.317v2.325a.317.317,0,0,0,.316.316h9.859a.318.318,0,0,1,.317.317v1.1a.318.318,0,0,1-.317.316h-14.156a.318.318,0,0,1-.317-.316V731.229a.318.318,0,0,1,.317-.317Zm-13.4,4.8h9.655c.614,0,.559.307.559.837,0,3.329-4.322,6.027-9.654,6.027s-9.655-2.7-9.655-6.027,4.322-6.027,9.655-6.027c3.561,0,6.673,1.2,8.346,3,.2.228,0,.242-.158.242h-3.927c-.349,0-.825-.391-1.118-.554a6.458,6.458,0,0,0-3.143-.786c-2.959,0-5.358,1.849-5.358,4.13s2.4,4.13,5.358,4.13c2.561,0,4.7-1.385,5.232-3.237h-5.785c-.251,0-.3-.3-.3-.3v-1.165S1117.95,735.712,1118.166,735.712Z"/></g></svg>