<svg xmlns="http://www.w3.org/2000/svg" width="74.999" height="43.063" viewBox="0 0 74.999 43.063"><defs><style>.a{fill-rule:evenodd;}</style></defs><g transform="translate(-309.337 -1024.641)"><path class="a" d="M362.749,1024.642a21.369,21.369,0,1,1-15.787,35.549,21.36,21.36,0,1,1-7.063-33.149l-4.124,10.012a10.653,10.653,0,0,0-5.163-1.287,10.465,10.465,0,0,0-7.437,3.175,10.563,10.563,0,0,0,7.662,17.962,10.414,10.414,0,0,0,6.662-2.463l-.025-3.387-8.237.087,4.088-9.887,8.837-.087a21.387,21.387,0,0,1,20.587-16.525Zm-11.962,15.325a2.208,2.208,0,0,0-2.475,2.525l.012,1.062a3.338,3.338,0,0,0,1.613,2.738c1,.687,1.5,1.3,1.5,1.812l.012,1.3c0,.437-.187.65-.562.65s-.575-.213-.575-.65l-.013-1.637-1.925.025.013,1.637a2.494,2.494,0,1,0,4.987-.05l-.013-1.438a3.273,3.273,0,0,0-1.612-2.687c-1-.7-1.5-1.287-1.5-1.75l-.012-1.025c0-.437.175-.65.562-.65s.575.213.588.638l.012,1.65,1.912-.025-.012-1.638a2.2,2.2,0,0,0-2.512-2.487Zm12.312-.113a2.2,2.2,0,0,0-2.463,2.525l.063,6.925a2.488,2.488,0,1,0,4.975-.05l-.063-6.925a2.194,2.194,0,0,0-2.512-2.475Zm-5.913.225-2.525.025.113,11.562,1.925-.012-.05-4.862h.125a4.353,4.353,0,0,0,1.15-.138,2.268,2.268,0,0,0,1.637-2.387l-.012-1.713q-.038-2.475-2.363-2.475Zm12.325-.112-2.525.025.113,11.562,1.912-.013-.05-4.974h.1l1.362,4.962,2.1-.025-1.9-5.3a1.956,1.956,0,0,0,1.238-2.05l-.013-1.712c-.012-1.663-.787-2.5-2.337-2.475Zm8.225-.088-4.988.05.013,1.838,1.525-.013.1,9.725,1.925-.025-.1-9.725,1.537-.012Zm-14.612,1.813c.375,0,.562.212.575.65l.062,6.937c.013.437-.187.65-.562.662s-.575-.212-.575-.65l-.075-6.937c0-.437.187-.65.562-.662Zm-6.088.237c.388,0,.575.213.575.65l.025,1.713a.586.586,0,0,1-.362.612,2.2,2.2,0,0,1-.413.05h-.237l-.025-3.012Zm12.325-.125c.375,0,.575.213.575.65l.025,1.713a.6.6,0,0,1-.363.612,1.516,1.516,0,0,1-.412.038h-.225l-.025-3.013Z"/></g></svg>