<svg xmlns="http://www.w3.org/2000/svg" width="75" height="39.983" viewBox="0 0 75 39.983"><defs><style>.a{fill:#1d1d1b;fill-rule:evenodd;}</style></defs><g transform="translate(-457.814 -788.229)"><path class="a" d="M490.725,808.472H487.99V796.4h6.664c2.829,0,5.878,1.7,5.878,5.092v1.32H497.7l.031-.912a2.61,2.61,0,0,0-2.64-2.766h-4.369v9.336Z"/><path class="a" d="M483.024,825.76v-.031a2.794,2.794,0,0,1-2.515,1.414,2.255,2.255,0,1,1,0-4.432,2.822,2.822,0,0,1,2.326,1.1v-.031l1.037-.6a4.235,4.235,0,0,0-3.363-1.54c-2.169,0-3.961,1.477-3.961,3.269,0,1.823,1.792,3.269,3.961,3.269a4.121,4.121,0,0,0,3.52-1.729l-1.005-.692Z"/><path class="a" d="M528.948,821.674H522.41v1.289h2.64v5.249h1.258v-5.249h2.64v-1.289Z"/><path class="a" d="M491.165,828.212h1.792l-3.3-3.3,3.238-3.238H491.07L488.776,824h0l-.723.692h-.189v-3.018h-1.289v6.538h1.289v-3.081h.252l3.049,3.081Z"/><path class="a" d="M517.223,821.674l-3.457-.031v6.569h1.288v-2.8h1.76l.409.378,2.389,2.42h1.823l-2.8-2.8h.126a1.87,1.87,0,1,0,0-3.74h-1.54Zm0,2.452h-2.169v-1.163h3.741a.563.563,0,0,1,.566.565.572.572,0,0,1-.566.6h-1.572Z"/><path class="a" d="M507.541,821.643c-2.2,0-3.96,1.477-3.96,3.3,0,1.792,1.76,3.269,3.96,3.269s3.961-1.477,3.961-3.269c0-1.823-1.76-3.3-3.961-3.3Zm0,1.068a2.255,2.255,0,1,1-2.671,2.232,2.485,2.485,0,0,1,2.671-2.232Z"/><path class="a" d="M498.646,821.674l-3.395-.031v6.569h1.257v-2.8h3.71a1.87,1.87,0,1,0,0-3.74h-1.572Zm0,2.452h-2.138v-1.163h3.71a.571.571,0,0,1,.6.565.579.579,0,0,1-.6.6h-1.572Z"/><path class="a" d="M461.272,821.674l-3.458-.031v6.569h1.32v-2.8h1.729l.409.378,2.389,2.42h1.823l-2.8-2.8h.157a1.87,1.87,0,0,0,0-3.74h-1.571Zm0,2.452h-2.138v-1.163h3.709a.563.563,0,0,1,.566.565.571.571,0,0,1-.566.6h-1.571Z"/><path class="a" d="M493.4,815.607a13.689,13.689,0,1,1,13.673-13.673A13.731,13.731,0,0,1,493.4,815.607Zm0-24.9a11.206,11.206,0,1,0,11.19,11.222,11.249,11.249,0,0,0-11.19-11.222Z"/><path class="a" d="M470.733,821.643c-2.2,0-3.96,1.477-3.96,3.3,0,1.792,1.76,3.269,3.96,3.269,2.169,0,3.961-1.477,3.961-3.269,0-1.823-1.792-3.3-3.961-3.3Zm0,5.5a2.255,2.255,0,1,0-2.672-2.2,2.484,2.484,0,0,0,2.672,2.2Z"/><path class="a" d="M531.557,822.02h-.535v1.32h.22v-.566h.126c.094,0,.126,0,.189.063a2.97,2.97,0,0,1,.22.283l.094.22h.283l-.189-.251c-.157-.283-.22-.315-.282-.346h0a.4.4,0,0,0,.377-.378.388.388,0,0,0-.126-.251.527.527,0,0,0-.377-.094Zm1.257.628a1.242,1.242,0,1,1-1.257-1.225,1.234,1.234,0,0,1,1.257,1.225Zm-1.257-1.037a1.037,1.037,0,0,1,0,2.075,1.038,1.038,0,0,1,0-2.075Zm0,.974h-.315v-.408h.315c.126.031.251.063.251.22s-.125.188-.251.188Z"/></g></svg>