<svg xmlns="http://www.w3.org/2000/svg" width="50.207" height="56.25" viewBox="0 0 50.207 56.25"><defs><style>.a{fill:#1d1d1b;fill-rule:evenodd;}</style></defs><g transform="translate(-854.23 -1430.337)"><path class="a" d="M901.488,1480.367a1.018,1.018,0,0,1,1.053.639l.03,3.553c-.005.329-.1.378-.295.58a.932.932,0,0,1-.588.3c-.966.086-1.126-1.478-1.13-2.424,0-1.011.039-2.41.93-2.65Zm-.438,6.22h3.387v-1.049c-.756-.163-.634-1.058-.632-1.863v-7.657c-.467.025-.425.167-.857.293a3.573,3.573,0,0,1-.993.118l-.008.874.267.139a.363.363,0,0,1,.191.187,7.06,7.06,0,0,1,.163,2.313,1.982,1.982,0,0,0-.892-.761,1.641,1.641,0,0,0-1.3.271,2.333,2.333,0,0,0-.718.936,7.154,7.154,0,0,0-.2,4.357,3.5,3.5,0,0,0,.556,1.147c.346.489.541.431,1.029.7Z"/><path class="a" d="M863.3,1483.32h.01v-1.348c0-.4,0-.833-.345-.982-.068-.029-.1-.03-.165-.057-.136-.053-.048-.008-.127-.059l.022-.426c.775.018,1.157-.236,1.727-.239l0,.588a4.048,4.048,0,0,1,1.423-.62,1.266,1.266,0,0,1,1.454.582c.312-.11,2.93-1.813,2.991.939.014.6-.027,3.43.028,3.8.1.649.251.427.61.648v.44h-2.415l.005-.448c.32-.125.537-.266.621-.536a1.051,1.051,0,0,0,.035-.383l-.061-2.533c0-.265.029-.644.008-.988a.993.993,0,0,0-.3-.8c-.455-.276-1.2.266-1.439.469l.031,4.2a.589.589,0,0,0,.023.121c.09.429.268.333.513.467v.432h-2.3v-.464c.138-.028.616-.153.613-.366l-.061-4.439c-.149-.888-1.159-.4-1.7.05l.006,4.011c.062.769.291.646.55.768l.008.44h-2.392l0-.44.041-.018.041-.018.083-.031c.421-.153.222-.113.448-.43l.008-.011v-2.319Z"/><path class="a" d="M873.583,1480.642c.468-.1.775.337.9.685.317.863.437,3.7-.523,4.124a.761.761,0,0,1-.713-.088,3.43,3.43,0,0,1-.42-.407,31.481,31.481,0,0,1-.056-3.37.954.954,0,0,1,.808-.944Zm.166,5.945h.512c.353-.178.536-.118.932-.626,1.036-1.327,1.1-5.176-.323-6.17-1.209-.842-1.875.267-2.186.439l.019-3.711c-.6.01-.272.258-1.663.4l.008.823c.352.2.43.08.535.61.114.57.067,7.479.056,8.1l.718,0,.267-.527a3.816,3.816,0,0,0,1.125.663Z"/><path class="a" d="M893.743,1486.587h2.373l0-.769c-.273-.152-.518-.081-.548-.944-.017-.52,0-1.06,0-1.583,0-1.585-.185-1.367.359-1.916.422-.424,1.206-.683,1.308.276a20.83,20.83,0,0,1-.091,3.792c-.11.232-.206.242-.443.375l-.007.769h2.38l0-.841c-1.079-.137-.438-2.585-.677-4.483-.092-.725-.46-1.408-1.207-1.384-.809.027-1.279.654-1.72.946l0-.859c-.48-.03-.346.254-1.736.366l.009.762c.159.13.535.086.6.866v2.886c-.04.6-.071.737-.6.934l0,.807Z"/><path class="a" d="M891.045,1483.349c-.025.409.1,1.436-.092,1.674-.226.277-.847.564-1.205.161-.438-.493-.253-1.718,1.3-1.835Zm1,3.238h.285a1.672,1.672,0,0,0,.806-.6l-.3-.556a.853.853,0,0,1-.376.045c-.768-1.215.788-4.65-1.274-5.364-1.095-.379-2.7.165-2.752,1.479-.035.963.751,1.179,1.034.525.263-.609.035-1.366.981-1.2.363.062.469.2.544.543a3.755,3.755,0,0,1,.016,1.1,4.543,4.543,0,0,0-1.944.646,2.1,2.1,0,0,0-.592,2.757c1.036,1.377,2.571-.024,2.712-.07a1.837,1.837,0,0,0,.583.565l.274.138Z"/><path class="a" d="M881.089,1486.587h2.906l0-.83c-.806-.195-.722-.672-.721-1.752,0-.794-.041-1.69.008-2.472.708-.7.78.022,1.392.1,1.084.138,1.014-2.283-.48-1.78a3.717,3.717,0,0,0-1.129.845l-.031-.786c-.438-.164-.623.228-1.943.322v.8c.453.252.64.2.7.829l-.005,3.063c-.052.51-.218.74-.7.82l0,.836Z"/><path class="a" d="M885.375,1486.587h2.493l-.018-.824c-.385-.2-.46-.228-.53-.724-.147-1.039.067-7.831-.053-8.528-.78-.022-.413.348-1.9.388l.007.844c.312.21.473.085.585.621.083.4.046,2.881.045,3.389,0,.769,0,1.539,0,2.308a5.664,5.664,0,0,1-.053,1.076c-.083.382-.2.509-.58.559v.891Z"/><path class="a" d="M877.672,1482.553a2.282,2.282,0,0,1-.018-.942c.175-.564,1.178-.981,1.5.379l-1.483.563Zm1.026,4.034h.348a2.348,2.348,0,0,0,1.422-.844,3.166,3.166,0,0,0,.564-1.734l-.51-.128c-.2,2.176-2.356,2.5-2.723-.59l2.679-1.078c-.137-.864-.834-1.946-1.585-2.057a2.188,2.188,0,0,0-2.162,1.467c-.546,1.429.11,3.937,1.29,4.687a4.2,4.2,0,0,0,.677.277Z"/><path class="a" d="M897.128,1448.29c.856.132.783,1.174.794,2.043.012.951.037,1.907.029,2.858-.021,2.3-1.915,6.958-2.93,8.481-1.267.024-2.43.092-3.677.009-2.588-.173-4.188-.243-6.848-.524-1.043-.111-2.316-.2-3.3-.392l.013-8.712,6.588-1.8c.454.354.822,1.785,1.784,1.922.666.1.938-.294.7-.916-.16-.418-.615-.74-.667-1.152.625-.188,1.425-.322,2.1-.473,1.2-.27,1.164-.205,1.887.393,1.28,1.058.935,1.735,2.117,1.578a1.619,1.619,0,0,0,.918-.338c-.027-.421-.9-1.178-1.1-1.8-.293-.951,1.328-1.216,1.6-1.174Zm-29,3.179c.5,0,.371.054.558-.082l4.6-3.967a1.3,1.3,0,0,1,.33-.263,18.63,18.63,0,0,1,1.211,1.573,11.317,11.317,0,0,0-1.108.713l-3.219,2.151c.143.065,2.9-.02,3.228-.052s.786-.466,1.061-.641c.887-.564.544-.41,2.178-.442a3.805,3.805,0,0,1,.356.561c.149.262.246.286.261.627.044,1.062-.035,7.039-.049,8.15-.4-.022-.934-.154-1.36-.221-.467-.072-.941-.145-1.421-.224a62.785,62.785,0,0,0-9.1-.8l-2.957.088a5.044,5.044,0,0,1-.761-1.343,14.084,14.084,0,0,1-.929-6.164c1.922,0,1.6.173,2.161-.539.4-.507,1.308-1.546,1.535-1.923a9.919,9.919,0,0,1,1.451.563,9.181,9.181,0,0,1,1.369.62l-1.266,1.626,1.868-.008Zm-7.193-1.915a16.21,16.21,0,0,1,.107-2.253,6.689,6.689,0,0,1,1.557.34l-.835,1.943-.829-.03Zm22.791-.478a2.234,2.234,0,0,1,.472-.857,11.02,11.02,0,0,1,1.108-1.527,4.21,4.21,0,0,1,1.186.01,8.2,8.2,0,0,1-.929,1.73c-.553.966-.313.684-1.837.644Zm-4.542-4.556v1.974l-1,0a10.733,10.733,0,0,1,.033-1.853l.967-.123Zm-13.293,2.562a9.155,9.155,0,0,1,.368-.929,1.973,1.973,0,0,1,.458-.857c.239-.228.429-.425.66-.659.312-.314.457-.232,1.046-.269a5.662,5.662,0,0,1,1.281,0,4.633,4.633,0,0,1,1.13.175,11.639,11.639,0,0,1,1.023,1.612l-.954.9c-.126.111-.2.17-.334.276l-1.229,1.184c-.982-.333-2.583-1.168-3.449-1.439Zm-4.367-2.3a21.57,21.57,0,0,1,2.965-.029c-.294.518-.586,1.059-.853,1.557l-2.191-.926.079-.6Zm12.6-.769a14.585,14.585,0,0,1,1.366-1.092c.135.345.475,2.126.61,2.742a.744.744,0,0,1-.21.739c-.451-.511-.9-1.236-1.341-1.775a2.364,2.364,0,0,1-.425-.614Zm7.413,2.578a6.021,6.021,0,0,1-.14-2.083c-.02-1.823-.109-1.461,1.8-2.843.193-.141,1.117-.956,1.392-.829.249.115.208,1.789.17,2.128-.078.69-1.225,1.75-1.722,2.332l-1.077,1.174c-.16.12-.184.118-.419.121Zm5.058-2.624c.04-.174,1.759-2.849,1.978-3.133a.654.654,0,0,1,.569-.252c.73-.055.926-.028.495.664-1.269,2.037-1.071,3.125-3.042,2.721Zm-14.483-5.088,1.5.071c.006.636-.027,1.407-.06,2.045a4.637,4.637,0,0,1-.593,1.41l-.811-.016-.04-3.51Zm-5.154-1.239a2.735,2.735,0,0,1,.615-.512l2.618.734-.137,2.927a5.544,5.544,0,0,1-.806-.807l-1.525-1.55c-.268-.276-.508-.52-.765-.792Zm10.252,5.1c-.954-3.356-1.1-5.465,1.194-8.257.818.2.586-.027.927,1.133.1.339.187.656.28.985a2.752,2.752,0,0,1,.193.986l-.1,4.068c-.374.238-.74.453-1.116.681-.686.415-.436.438-1.379.4Zm-5.16-7.525,1.016.4.07,1.545-1.069-.267-.007-1.058-.01-.617Zm9.963-4.876h-1.744l1.928,4.5a15.365,15.365,0,0,1,.648,1.538l-1.527-.015c-.238-.341-2.026-4.9-2.476-5.8l-.039-.075a.518.518,0,0,0-.072-.115c-1.018.1-.81.18-1.176.989-.623,1.373-1.4,3.3-1.992,4.522l-.787-.007a7.312,7.312,0,0,1-.536-1.1l-1.606-3.457a22.746,22.746,0,0,0-2.471.93l.033,3.608c-1.294-.182-2.571-.522-3.851-.723-.368-.058-.46.157-.693.358a8.221,8.221,0,0,0-1.565,1.8l3.185,3.349a7.164,7.164,0,0,1,.639.683c.425.488.924.695,1.031,1.584l-1.8.077c-.173-.22-.355-.387-.517-.591l-3.025-3.573c-.11-.126-.153-.172-.252-.294s-.181-.178-.271-.276a2.367,2.367,0,0,0-1.225,1.453,18.162,18.162,0,0,1,1.24,1.383l1.631,1.887a2.154,2.154,0,0,1,.2.238,2.51,2.51,0,0,1,.2.248l-5.251.1-.758,2.374a20.56,20.56,0,0,0-.519,2.6,20.88,20.88,0,0,0,3.315,14.277,2.13,2.13,0,0,1,.319.5c6.923-.806,9.729-1.1,16.883-.648,5.252.333,12,.688,17.049-.233,1.073-.2.888-.044,1.353-.852a20.855,20.855,0,0,0,2.289-14.631c-.149-.595-.289-1.276-1.019-1.24-.458.022-2.8.852-3.458,1.049-1.128.336-6.246,1.878-7.159,1.724-.086-.459.275-.965.467-1.328a3.8,3.8,0,0,1,.757-1.107c.6-.547,2.235-.49,3.15-.639a17.108,17.108,0,0,0,2.952-.839,18.963,18.963,0,0,0,2.579-1.216,12.063,12.063,0,0,0-.211-1.435l-.121-.463-1.816.794c-.6.257-1.252.523-1.8.779-.609.282-1.161.5-1.791.787-.385.174-1.783.772-1.927.123-.163-.736,1.374-3.049,1.665-3.456.205-.287.281-.506.727-.547l3.923.089-.729-1.579-5.885-.086L892.03,1435l-1.055-.919c-.137.233-.339.5-.5.748-.957,1.434-2.126,3.308-3.084,4.663-.2.277-.349.553-.524.8-.118-.309-.3-.579-.45-.891s-.3-.554-.46-.854l-.9-1.745,4.692-3.446-1.127-.871c-.693.416-1.439.819-2.085,1.2-.332.195-.667.4-1.033.617a8.907,8.907,0,0,0-1,.639c-.318-.447-1.986-3.866-2.489-4.6Z"/><path class="a" d="M879.388,1472.183a20.714,20.714,0,0,0,9.985-2.582,5.158,5.158,0,0,0,1.138-.738,34.462,34.462,0,0,1-8.607-.45c-1.887-.282-3.8-.563-5.661-.933a94.225,94.225,0,0,0-11.681-1.458,21.854,21.854,0,0,0,2.83,2.4,21.009,21.009,0,0,0,12,3.757Z"/><path class="a" d="M863.035,1464.3c.032.089.349.585.567.609.3.033.89-.009,1.23-.011a51.288,51.288,0,0,1,7.145.481c2.914.372,5.722,1.089,8.607,1.55a53.148,53.148,0,0,0,9.407.737,15.257,15.257,0,0,0,2.415-.09,22.956,22.956,0,0,0,2-1.839,3.172,3.172,0,0,0,.28-.328l.9-1.015a5.116,5.116,0,0,0,.573-.792,18.611,18.611,0,0,0-1.918.264,53.644,53.644,0,0,1-10.342.272c-1.349-.078-2.771-.1-4.106-.226-1.9-.184-6.515-.184-8.541-.141a64.327,64.327,0,0,0-8.223.529Z"/><path class="a" d="M854.23,1477.8v.063l.456.16a2.227,2.227,0,0,1,.808-.993,2.618,2.618,0,0,1,1.454-.335l-.014,6.591h-.007v2.563a1.146,1.146,0,0,0-.116,0,4.263,4.263,0,0,0-.548.174l-.138.061v.495h3.219l-.022-.531c-.375-.048-.327-.112-.531-.189-.075-.029-.177-.062-.181-.142-.156-3.04-.112-5.968-.117-9.03a2.2,2.2,0,0,1,2.279,1.318l.434-.142a13.878,13.878,0,0,0-.685-1.751l-5.595-.013-.7,1.7Z"/><path class="a" d="M859.8,1486.587h2.349l-.078-.476c-.045-.017-.077-.027-.122-.045-.341-.134-.165-.2-.356-.37l-.018-5.52c-.525-.045-.417.021-.816.134a4.858,4.858,0,0,1-.939.11l-.023.446c.358.09.506.219.549.6l.023,4.229c0,.215-.376.38-.567.42l0,.471Z"/></g></svg>