<svg xmlns="http://www.w3.org/2000/svg" width="75" height="49.902" viewBox="0 0 75 49.902"><defs><style>.a{fill:#fff;}</style></defs><g transform="translate(-1381.92 -3277.849)"><path class="a" d="M1456.547,3318.4h-3.272a2.2,2.2,0,0,0-.475-1.14,2.461,2.461,0,0,0-1.772-.53,2.642,2.642,0,0,0-1.692.406,1.051,1.051,0,0,0-.362.835c0,.5.69.891,2.054,1.2a32.6,32.6,0,0,1,3.363.868c.181.068.339.125.452.181a3.163,3.163,0,0,1,2.077,2.98,3.774,3.774,0,0,1-2.021,3.554c-.169.091-.327.17-.508.249a7.635,7.635,0,0,1-3.023.564,8.3,8.3,0,0,1-4.131-.9,3.9,3.9,0,0,1-1.482-1.448,4.067,4.067,0,0,1-.493-2.039h3.43a1.624,1.624,0,0,0,.632,1.366,3.53,3.53,0,0,0,2.133.5,2.576,2.576,0,0,0,1.693-.474,1.059,1.059,0,0,0,.429-.836c0-.53-.676-.947-2.02-1.241a21.935,21.935,0,0,1-3.792-1.028,3.144,3.144,0,0,1-2.053-3.013,3.937,3.937,0,0,1,1.072-2.809,5.309,5.309,0,0,1,4.051-1.434,8.475,8.475,0,0,1,3.555.632,1.284,1.284,0,0,1,.215.114,3.575,3.575,0,0,1,1.452,1.389A4.126,4.126,0,0,1,1456.547,3318.4Z"/><path class="a" d="M1454.8,3310.406a.267.267,0,0,0-.046-.17.242.242,0,0,0-.145-.112,1.724,1.724,0,0,0-.216-.035h-.518v.633h.518a.486.486,0,0,0,.305-.09A.287.287,0,0,0,1454.8,3310.406Zm.271-.339a.5.5,0,0,1,.1.305.553.553,0,0,1-.169.406.654.654,0,0,1-.44.192.566.566,0,0,1,.181.112l.315.419.248.416h-.406l-.192-.338a1.944,1.944,0,0,0-.316-.451.134.134,0,0,0-.045-.034l-.27-.078h-.2v.9h-.339v-2.12h.733c.046,0,.091.01.124.01a1.2,1.2,0,0,1,.407.057A.488.488,0,0,1,1455.069,3310.067Z"/><path class="a" d="M1456.029,3310.835a1.641,1.641,0,0,0-.215-.824,1.59,1.59,0,0,0-.61-.61,1.747,1.747,0,0,0-.8-.214h-.011a1.739,1.739,0,0,0-.8.214,1.585,1.585,0,0,0-.61.61,1.6,1.6,0,0,0,0,1.637,1.532,1.532,0,0,0,.6.6,1.62,1.62,0,0,0,.812.215h.011a1.626,1.626,0,0,0,.814-.215,1.525,1.525,0,0,0,.6-.6A1.636,1.636,0,0,0,1456.029,3310.835Zm.327,0a1.919,1.919,0,0,1-.261.97,1.7,1.7,0,0,1-.721.722,1.891,1.891,0,0,1-.972.26h-.011a1.881,1.881,0,0,1-.969-.26,1.711,1.711,0,0,1-.724-.722,1.926,1.926,0,0,1-.259-.97,1.96,1.96,0,0,1,.259-.994,1.828,1.828,0,0,1,.734-.722,2.148,2.148,0,0,1,.959-.259h.011a2.005,2.005,0,0,1,.959.259,1.733,1.733,0,0,1,.734.722A1.953,1.953,0,0,1,1456.356,3310.835Z"/><path class="a" d="M1437.159,3294.889l9.266,15.438H1431.54l-8.848-14.75-6.7-11.161,6.7-4.029,4.22-2.539Z"/><path class="a" d="M1443.886,3321.047v6.331H1440.8v-.7a6.585,6.585,0,0,1-3.611,1.073h-.034a6.7,6.7,0,0,1,0-13.407h.034a6.6,6.6,0,0,1,3.611,1.072v-.734h3.082Zm-3.082.7v-1.4a3.691,3.691,0,0,0-3.611-2.98h-.034a3.685,3.685,0,0,0,0,7.37h.034A3.7,3.7,0,0,0,1440.8,3321.747Z"/><path class="a" d="M1429.418,3321.047v6.331h-3.08v-.7a6.619,6.619,0,0,1-3.612,1.073h-.034a6.7,6.7,0,0,1,0-13.407h.034a6.635,6.635,0,0,1,3.612,1.072v-5.089h3.08Zm-3.08.7v-1.4a3.694,3.694,0,0,0-3.612-2.98h-.034a3.685,3.685,0,0,0,0,7.37h.034A3.7,3.7,0,0,0,1426.338,3321.747Z"/><path class="a" d="M1422.692,3304.255l3.633,6.073h-14.874l-8.26-13.745-.361-.6.361-.214,10.574-6.366Z"/><rect class="a" width="3.351" height="13.034" transform="translate(1411.464 3314.344)"/><rect class="a" width="3.351" height="2.945" transform="translate(1411.464 3310.394)"/><path class="a" d="M1409.928,3321.047v6.331h-3.08v-.7a6.649,6.649,0,0,1-3.623,1.073h-.033a6.7,6.7,0,0,1,0-13.407h.033a6.664,6.664,0,0,1,3.623,1.072v-5.089h3.08Zm-3.08.7v-1.4a3.7,3.7,0,0,0-3.623-2.98h-.033a3.685,3.685,0,0,0,0,7.37h.033A3.7,3.7,0,0,0,1406.848,3321.747Z"/><path class="a" d="M1403.192,3305.248l3.047,5.079h-14.885l-1.67-2.788,10.935-6.568Z"/><path class="a" d="M1395.315,3321.047v6.331h-3.081v-.7a6.653,6.653,0,0,1-3.622,1.073h-.035a6.7,6.7,0,0,1,0-13.407h.035a6.668,6.668,0,0,1,3.622,1.072v-.734h3.081Zm-3.081.7v-1.4a3.694,3.694,0,0,0-3.622-2.98h-.035a3.685,3.685,0,0,0,0,7.37h.035A3.7,3.7,0,0,0,1392.234,3321.747Z"/></g></svg>