<svg xmlns="http://www.w3.org/2000/svg" width="75" height="25.704" viewBox="0 0 75 25.704"><defs><style>.a{fill:#1d1d1b;}</style></defs><g transform="translate(-1408.925 -781.745)"><path class="a" d="M1482.442,805.641v.5c.316.011.475-.087.475-.293,0-.185-.117-.278-.349-.278q-.142-.007-.126.072Zm.926,1.156v.04h-.332l-.475-.626-.119.008v.4c-.017.127.044.188.181.182v.04h-.562v-.04c.137.011.2-.058.175-.206v-.879c.015-.127-.043-.188-.175-.182V805.5h.562c.338.005.51.122.516.349,0,.19-.122.3-.365.34l.413.515a.229.229,0,0,0,.181.095Zm.268-.51a.986.986,0,1,1,0-.246,1.012,1.012,0,0,1,0,.246Zm.281-.243a1.265,1.265,0,1,0,0,.27,1.268,1.268,0,0,0,0-.27Zm-2.5-11.544h-4.374a2.583,2.583,0,0,0-2.712-2.095c-2.088,0-2.559.8-2.546,1.395.01.462.364,1.05,1.324,1.489,1.845.845,4.99,1.153,6.968,2.569,2.561,1.832,2.23,5.732.053,7.658q-1.953,1.727-6.088,1.779-6.645-.286-7.464-5.729h4.6c.447,2.453,3.42,2.73,5.274,1.745.934-.5,1.312-1.307.45-2.091a13.4,13.4,0,0,0-3.405-1.31c-2.987-.749-4.937-1.7-5.854-3.119a5.106,5.106,0,0,1,1.176-6.242,8.729,8.729,0,0,1,5.406-1.587q6.369.1,7.192,5.538Zm-27.99-5.188,6.157,9.533v-9.533h4.47v17.569h-4.47l-6.157-9.561v9.561h-4.878V789.312Zm-19.7,17.569h-5.275l6.8-17.569h4.3l6.8,17.569h-5.363l-.9-2.316h-5.469l-.9,2.316Zm5.676-6.034-1.98-6.292-2.023,6.292Zm-11.8-19.1h55.254V786.4h-51.213l-7.925,20.481h-5.364l-9.424-25.136h5.833l6.294,16.911,6.545-16.911Z"/></g></svg>